<?xml version="1.0" encoding="utf-8"?>
<!-- Generator: Adobe Illustrator 26.2.0, SVG Export Plug-In . SVG Version: 6.00 Build 0)  -->
<svg version="1.1" id="Ebene_1" xmlns="http://www.w3.org/2000/svg" xmlns:xlink="http://www.w3.org/1999/xlink" x="0px" y="0px"
	 viewBox="0 0 888 741" style="enable-background:new 0 0 888 741;" xml:space="preserve">
<style type="text/css">
	.st0{fill:#E6E6E6;}
	.st1{fill:#FFFFFF;}
	.st2{fill:#46CDB9;}
	.st3{opacity:0.2;enable-background:new    ;}
	.st4{fill:#FFB8B8;}
	.st5{fill:#575A89;}
	.st6{fill:#2F2E41;}
	.st7{fill:#3F3D56;}
</style>
<g>
	<path class="st0" d="M522.5,174.4h4V63.9c0-35.3,28.5-63.9,63.7-63.9c0,0,0,0,0,0h233.4c35.2,0,63.7,28.6,63.7,63.9c0,0,0,0,0,0
		v606c0,35.3-28.5,63.9-63.7,63.9c0,0,0,0,0,0H590.3c-35.2,0-63.7-28.6-63.7-63.9c0,0,0,0,0,0V253h-4V174.4z"/>
	<path class="st1" d="M587.7,16.6h30.5c-4.7,11.6,0.8,24.8,12.4,29.6c2.7,1.1,5.6,1.7,8.5,1.7h133.7c12.5,0,22.6-10.2,22.6-22.7
		c0-2.9-0.6-5.8-1.7-8.6h28.5c26.3,0,47.6,21.4,47.6,47.7l0,0v605.1c0,26.4-21.3,47.7-47.6,47.7c0,0,0,0,0,0H587.7
		c-26.3,0-47.6-21.4-47.6-47.7c0,0,0,0,0,0V64.4C540.1,38,561.4,16.6,587.7,16.6L587.7,16.6z"/>
	<path class="st0" d="M774.1,139.6h14c1,0,1.9,0.8,1.9,1.9v6.2c0,1-0.8,1.9-1.9,1.9h-2.3v9.2h-9.4v-9.2h-2.3c-1,0-1.9-0.8-1.9-1.9
		v-6.2C772.2,140.5,773,139.6,774.1,139.6z"/>
	<path class="st0" d="M760,196c8.6-12.6,13-27.6,12.5-42.8c0-0.7,0.5-1.4,1.2-1.5v-2.7h14.8v2.6h0.2c0.8,0,1.5,0.7,1.5,1.5
		c0,0,0,0.1,0,0.1c-1.2,16.3,2.8,30.9,11.8,43.8c0.5,0.7,0.8,1.6,0.8,2.5l-1.6,50.2c-0.1,2.3-2,4.2-4.3,4.2h-33.4
		c-2.3,0-4.3-1.9-4.3-4.3l-0.6-48.7C758.5,199.3,759,197.5,760,196z"/>
	<path class="st1" d="M765.3,212.7h29.1c1.7,0,3,1.3,3,3c0,0.2,0,0.3,0,0.5l-4.4,28.7h-25.3l-5.3-28.6c-0.3-1.6,0.8-3.2,2.4-3.5
		C765,212.7,765.1,212.7,765.3,212.7L765.3,212.7z"/>
	<path class="st0" d="M618.2,289.9h14c1,0,1.9,0.8,1.9,1.9v6.2c0,1-0.8,1.9-1.9,1.9h-2.3v9.2h-9.4v-9.2h-2.3c-1,0-1.9-0.8-1.9-1.9
		v-6.2C616.3,290.7,617.2,289.9,618.2,289.9z"/>
	<path class="st0" d="M604.2,346.3c8.6-12.6,13-27.6,12.5-42.8c0-0.7,0.5-1.4,1.2-1.5v-2.7h14.8v2.6h0.2c0.8,0,1.5,0.7,1.5,1.5
		c0,0,0,0.1,0,0.1c-1.2,16.3,2.8,30.9,11.8,43.8c0.5,0.7,0.8,1.6,0.8,2.5l-1.6,50.2c-0.1,2.3-2,4.2-4.3,4.2h-33.4
		c-2.3,0-4.3-1.9-4.3-4.3l-0.6-48.7C602.7,349.5,603.2,347.7,604.2,346.3z"/>
	<path class="st1" d="M609.5,362.9h29.1c1.7,0,3,1.3,3,3c0,0.2,0,0.3,0,0.5l-4.4,28.7h-25.3l-5.3-28.6c-0.3-1.6,0.8-3.2,2.4-3.5
		C609.1,362.9,609.3,362.9,609.5,362.9L609.5,362.9z"/>
	<path class="st0" d="M793.7,502.3h6.6c0.5,0,0.9,0.4,0.9,0.9l0,0v2.9c0,0.5-0.4,0.9-0.9,0.9l0,0h-1.1v4.4h-4.4v-4.4h-1.1
		c-0.5,0-0.9-0.4-0.9-0.9l0,0v-2.9C792.9,502.7,793.2,502.3,793.7,502.3L793.7,502.3z"/>
	<path class="st0" d="M787.1,529c4.1-6,6.1-13.1,5.9-20.3c0-0.3,0.2-0.6,0.6-0.7v-1.3h7v1.2h0.1c0.4,0,0.7,0.3,0.7,0.7
		c0,0,0,0,0,0.1c-0.6,7.4,1.3,14.7,5.6,20.8c0.2,0.4,0.4,0.8,0.4,1.2l-0.8,23.8c0,1.1-0.9,2-2,2h-15.9c-1.1,0-2-0.9-2-2l-0.3-23.1
		C786.4,530.5,786.6,529.7,787.1,529z"/>
	<rect x="789.4" y="537.8" class="st1" width="15.1" height="7.6"/>
	<path class="st0" d="M762.8,502.3h6.6c0.5,0,0.9,0.4,0.9,0.9l0,0v2.9c0,0.5-0.4,0.9-0.9,0.9l0,0h-1.1v4.4h-4.4v-4.4h-1.1
		c-0.5,0-0.9-0.4-0.9-0.9l0,0v-2.9C761.9,502.7,762.3,502.3,762.8,502.3C762.8,502.3,762.8,502.3,762.8,502.3z"/>
	<path class="st0" d="M756.2,529c4.1-6,6.1-13.1,5.9-20.3c0-0.3,0.2-0.6,0.6-0.7v-1.3h7v1.2h0.1c0.4,0,0.7,0.3,0.7,0.7
		c0,0,0,0,0,0.1c-0.6,7.4,1.3,14.7,5.6,20.8c0.2,0.4,0.4,0.8,0.4,1.2l-0.8,23.8c0,1.1-0.9,2-2,2h-15.9c-1.1,0-2-0.9-2-2l-0.3-23.1
		C755.4,530.5,755.7,529.7,756.2,529z"/>
	<rect x="758.5" y="537.8" class="st1" width="15.1" height="7.6"/>
	<path class="st0" d="M731.9,502.3h6.6c0.5,0,0.9,0.4,0.9,0.9l0,0v2.9c0,0.5-0.4,0.9-0.9,0.9h0h-1.1v4.4H733v-4.4h-1.1
		c-0.5,0-0.9-0.4-0.9-0.9l0,0v-2.9C731,502.7,731.4,502.3,731.9,502.3C731.9,502.3,731.9,502.3,731.9,502.3z"/>
	<path class="st0" d="M725.3,529c4.1-6,6.1-13.1,5.9-20.3c0-0.3,0.2-0.6,0.6-0.7v-1.3h7v1.2h0.1c0.4,0,0.7,0.3,0.7,0.7
		c0,0,0,0,0,0.1c-0.6,7.4,1.3,14.7,5.6,20.8c0.2,0.4,0.4,0.8,0.4,1.2l-0.8,23.8c0,1.1-0.9,2-2,2h-15.9c-1.1,0-2-0.9-2-2l-0.3-23.1
		C724.5,530.5,724.8,529.7,725.3,529z"/>
	<rect x="727.5" y="537.8" class="st1" width="15.1" height="7.6"/>
	<path class="st0" d="M642.5,444.1h14c1,0,1.9,0.8,1.9,1.9l0,0v6.2c0,1-0.8,1.9-1.9,1.9h-2.3v9.2h-9.4V454h-2.3
		c-1,0-1.9-0.8-1.9-1.9V446C640.7,445,641.5,444.1,642.5,444.1C642.5,444.1,642.5,444.1,642.5,444.1z"/>
	<path class="st0" d="M628.5,500.5c8.6-12.6,13-27.6,12.5-42.8c0-0.7,0.5-1.4,1.2-1.5v-2.7H657v2.6h0.2c0.8,0,1.5,0.7,1.5,1.5
		c0,0,0,0.1,0,0.1c-1.2,16.3,2.8,30.9,11.8,43.8c0.5,0.7,0.8,1.6,0.8,2.5l-1.6,50.2c-0.1,2.3-2,4.2-4.3,4.2h-33.4
		c-2.3,0-4.3-1.9-4.3-4.3l-0.6-48.7C627,503.8,627.5,502,628.5,500.5z"/>
	<path class="st1" d="M633.8,517.2h29.1c1.7,0,3,1.3,3,3c0,0.2,0,0.3,0,0.5l-4.4,28.7h-25.3l-5.3-28.6c-0.3-1.6,0.8-3.2,2.4-3.5
		C633.4,517.2,633.6,517.2,633.8,517.2L633.8,517.2z"/>
	<path class="st0" d="M634.9,260.5h83.5c-5.8-31.6-4.5-69.8,0-110.9h-83.5C639.3,190.6,640.6,228.8,634.9,260.5z"/>
	<ellipse class="st1" cx="676.1" cy="202" rx="20.1" ry="20.2"/>
	<path class="st0" d="M711.3,407.7h83.5c-5.8-31.6-4.5-69.8,0-110.9h-83.5C715.7,337.8,717,376,711.3,407.7z"/>
	<ellipse class="st1" cx="752.5" cy="349.2" rx="20.1" ry="20.2"/>
	<path class="st0" d="M587.6,267.5h83.5c-5.8-31.6-4.5-69.8,0-110.9h-83.5C592,197.7,593.3,235.9,587.6,267.5z"/>
	<ellipse class="st1" cx="628.8" cy="209" rx="20.1" ry="20.2"/>
	<path class="st0" d="M587.6,262.5h83.5c-5.8-31.6-4.5-69.8,0-110.9h-83.5C592,192.6,593.3,230.8,587.6,262.5z"/>
	<ellipse class="st1" cx="628.8" cy="204" rx="20.1" ry="20.2"/>
	<path class="st0" d="M587.6,267.5h83.5c-5.8-31.6-4.5-69.8,0-110.9h-83.5C592,197.7,593.3,235.9,587.6,267.5z"/>
	<ellipse class="st1" cx="628.8" cy="209" rx="20.1" ry="20.2"/>
	<rect x="568.5" y="254.4" class="st0" width="273.5" height="30.2"/>
	<rect x="568.5" y="404.6" class="st0" width="273.5" height="30.2"/>
	<rect x="568.5" y="554.9" class="st0" width="273.5" height="30.2"/>
	<path class="st2" d="M92.8,677.6l68.1-48.3c-23-22.4-43.9-54.4-63.9-90.6L28.9,587C56.1,618.1,79.2,648.5,92.8,677.6z"/>
	<ellipse class="st1" cx="92.8" cy="606" rx="20.1" ry="20.2"/>
	<path class="st0" d="M421.4,457.1h7.5c0.5,0,1,0.4,1,1v3.3c0,0.5-0.4,1-1,1h-1.2v4.9h-5v-4.9h-1.2c-0.5,0-1-0.4-1-1v-3.3
		C420.5,457.5,420.9,457.1,421.4,457.1z"/>
	<path class="st2" d="M414,487.2c4.6-6.7,6.9-14.7,6.7-22.9c0-0.4,0.3-0.7,0.6-0.8v-1.4h7.9v1.4h0.1c0.4,0,0.8,0.4,0.8,0.8
		c0,0,0,0,0,0.1c-0.7,8.3,1.5,16.6,6.3,23.4c0.3,0.4,0.4,0.9,0.4,1.4l-0.9,26.8c0,1.2-1.1,2.2-2.3,2.2h-17.9c-1.3,0-2.3-1-2.3-2.3
		l-0.3-26C413.1,488.9,413.4,488,414,487.2z"/>
	<path class="st3" d="M423,458.2c0,1.2,1,2.1,2.1,2.1s2.1-1,2.1-2.1"/>
	<rect x="417.4" y="492.4" class="st1" width="15.1" height="10.1"/>
	<path class="st0" d="M184.8,561.7h14c1,0,1.9,0.8,1.9,1.9v6.2c0,1-0.8,1.9-1.9,1.9h-2.3v9.2h-9.4v-9.2h-2.3c-1,0-1.9-0.8-1.9-1.9
		l0,0v-6.2C182.9,562.6,183.7,561.7,184.8,561.7z"/>
	<path class="st2" d="M170.7,618.1c8.6-12.6,13-27.6,12.5-42.8c0-0.7,0.5-1.4,1.2-1.5v-2.7h14.8v2.6h0.2c0.8,0,1.5,0.7,1.5,1.5l0,0
		c0,0,0,0.1,0,0.1c-1.2,16.3,2.8,30.9,11.8,43.8c0.5,0.7,0.8,1.6,0.8,2.5l-1.6,50.2c-0.1,2.3-2,4.2-4.3,4.2h-33.4
		c-2.3,0-4.3-1.9-4.3-4.3l-0.6-48.7C169.2,621.4,169.7,619.6,170.7,618.1z"/>
	<path class="st3" d="M187.7,563.7c0,2.2,1.8,4,4,4s4-1.8,4-4"/>
	<path class="st1" d="M176,634.8h29.1c1.7,0,3,1.3,3,3c0,0.2,0,0.3,0,0.5l-4.4,28.7h-25.3l-5.3-28.6c-0.3-1.6,0.8-3.2,2.4-3.5
		C175.7,634.8,175.9,634.8,176,634.8L176,634.8z"/>
	<path class="st2" d="M224.7,677.5h83.5c-5.8-31.6-4.5-69.8,0-110.9h-83.5C229.1,607.7,230.4,645.9,224.7,677.5z"/>
	<ellipse class="st1" cx="265.9" cy="619" rx="20.1" ry="20.2"/>
	<polygon class="st4" points="566.1,328.5 547.3,326.8 535.4,297.7 556.7,285.8 	"/>
	<path class="st4" d="M394.1,408.2L394.1,408.2c-2.2-5.4,0.5-11.6,5.9-13.8c1.1-0.4,2.2-0.7,3.3-0.7l29.1-1.7l4.3,14.3l-29.9,8.2
		C401.5,415.9,396.1,413.2,394.1,408.2z"/>
	<path class="st5" d="M425.4,414.7l0.3-26.8l64.6-10.3l49.8-57.2c5.4-6.2,14.4-7.4,21.2-2.9l0,0c7.5,5,9.6,15.1,4.7,22.6
		c-0.5,0.8-1.1,1.6-1.8,2.3L523.1,393L425.4,414.7z"/>
	<path class="st6" d="M580.5,716.2h-17l-42.2-191.5l-43.8,59.2l-25.5,128.1h-16.2l3.4-137.5l57.1-146.9h56.2
		c15.4,27.9,27.4,56.6,13.6,86.3L580.5,716.2z"/>
	<path class="st6" d="M462.4,727.8c0.7,2.3-0.6,4.8-2.9,5.6c-0.2,0.1-0.4,0.1-0.5,0.1l-41.7,7.4c-3.4,0.6-6.7-1.4-7.8-4.7l0,0
		c-1-3.2,0.4-6.6,3.3-8.1c9.2-4.7,17.1-11.6,23-20c4.6,4.3,9.7,3.9,15.1,0.7l5.8,0.7L462.4,727.8z"/>
	<path class="st6" d="M588.4,727.8c0.7,2.3-0.6,4.8-2.9,5.6c-0.2,0.1-0.4,0.1-0.5,0.1l-41.7,7.4c-3.4,0.6-6.7-1.4-7.8-4.7l0,0
		c-1-3.2,0.4-6.6,3.3-8.1c9.2-4.7,17.1-11.6,23-20c4.6,4.3,9.7,3.9,15.1,0.7l5.8,0.7L588.4,727.8z"/>
	<ellipse class="st4" cx="535" cy="284.5" rx="23.8" ry="23.9"/>
	<path class="st5" d="M556.3,433.9l-62.2-1.7l18.3-57.6c-11.3-18.2,0.1-36.5,16.2-54.7l12.8-8.5l20.4-1.7l0,0
		c8.8,9.5,13.7,22.1,13.5,35.1C574.9,372.6,570,402.8,556.3,433.9z"/>
	<path class="st4" d="M413.4,472.7L413.4,472.7c-4.1-4.1-4.1-10.8,0-15c0.8-0.8,1.7-1.5,2.7-2l26.1-13.1l9.5,11.4l-24.3,19.4
		C423.3,476.9,417.2,476.5,413.4,472.7z"/>
	<path class="st5" d="M444.7,466.4l-10.2-24.8l55.3-35l23.3-72.3c2.5-7.8,10.4-12.5,18.4-11.1l0,0c8.9,1.6,14.7,10.1,13.2,19
		c-0.2,1-0.4,1.9-0.8,2.8L526,407.9L444.7,466.4z"/>
	<path class="st6" d="M574.2,275.1c0,9.3-6,23.7-13.6,29.9c-5.1,4.2-11.9,4-14.5-1.7c-2.7-5.8-11.9-19.6-28.1-28.2
		c-21.6-11.5,7.7-31.2,28.1-28.2C561.4,249.2,574.2,259.5,574.2,275.1z"/>
	<ellipse class="st6" cx="559.7" cy="245.2" rx="17" ry="17.1"/>
	<path class="st6" d="M540.1,239.2c0-8.9,6.9-16.3,15.8-17c-0.4,0-0.8-0.1-1.3-0.1c-9.4,0-17,7.6-17,17.1s7.6,17.1,17,17.1
		c0.4,0,0.9,0,1.3-0.1C547,255.6,540.1,248.2,540.1,239.2z"/>
	<ellipse class="st4" cx="534.6" cy="287.9" rx="3.8" ry="5.1"/>
	<polygon class="st7" points="52,684.8 317.1,684.8 373.3,418.7 421.2,418.7 421.2,406.8 363.6,406.8 307.5,672.9 52,672.9 	"/>
	<ellipse class="st7" cx="278.3" cy="707.9" rx="25.5" ry="25.6"/>
	<ellipse class="st7" cx="87.7" cy="707.9" rx="25.5" ry="25.6"/>
	<path class="st7" d="M56.8,679.2h258l45.5-225.6H14.1c-6.8,0-12.2,5.5-12.2,12.3c0,0.6,0,1.3,0.1,1.9l42.7,201
		C45.7,674.8,50.8,679.2,56.8,679.2z M312,675.8H56.8c-4.4,0-8.1-3.2-8.7-7.5l-42.7-201c-0.8-4.8,2.5-9.4,7.3-10.1
		c0.5-0.1,0.9-0.1,1.4-0.1h342.1L312,675.8z"/>
	<polygon class="st7" points="264.6,678.5 294.4,455.7 291.1,455.1 261.3,677.9 	"/>
	<polygon class="st7" points="98.9,676.8 102.3,676.2 73.3,455.1 70,455.6 	"/>
	<rect x="177.9" y="455.4" class="st7" width="3.4" height="222.8"/>
	
		<rect x="13.5" y="515.5" transform="matrix(1 -2.414614e-03 2.414614e-03 1 -1.2483 0.4319)" class="st7" width="329.4" height="3.4"/>
	
		<rect x="179.7" y="478.5" transform="matrix(6.854753e-03 -1 1 6.854753e-03 -442.9704 800.3669)" class="st7" width="3.4" height="289.4"/>
	<ellipse class="st7" cx="416.1" cy="411" rx="18.7" ry="10.2"/>
</g>
</svg>
